<?xml version="1.0" standalone="no"?>
<!DOCTYPE svg PUBLIC "-//W3C//DTD SVG 20010904//EN"
 "http://www.w3.org/TR/2001/REC-SVG-20010904/DTD/svg10.dtd">
<svg version="1.0" xmlns="http://www.w3.org/2000/svg"
 width="256.000000pt" height="256.000000pt" viewBox="0 0 256.000000 256.000000"
 preserveAspectRatio="xMidYMid meet">

<g transform="translate(0.000000,256.000000) scale(0.100000,-0.100000)"
fill="#000000" stroke="none">
<path d="M1179 2240 c-392 -46 -718 -334 -793 -702 -20 -96 -20 -271 -1 -361
18 -84 68 -203 120 -282 58 -90 197 -223 295 -283 102 -63 269 -130 359 -144
57 -9 277 -6 321 4 32 8 188 72 245 100 183 93 313 225 396 402 48 103 69 191
75 311 l5 110 -25 -50 c-23 -48 -24 -49 -26 -20 -1 17 -5 39 -9 50 -5 12 -3
24 5 32 7 7 10 22 7 33 -4 15 0 20 13 21 31 1 -36 28 -71 29 -17 0 -63 -9
-103 -20 -45 -12 -102 -20 -154 -20 -45 0 -79 -3 -75 -6 3 -3 67 -7 141 -8
108 -1 138 -4 151 -17 14 -14 13 -16 -7 -28 -25 -13 -62 -82 -50 -91 18 -14 7
-31 -38 -60 -28 -18 -50 -34 -50 -37 0 -3 15 -3 33 -1 l34 4 -20 -33 c-10 -18
-21 -33 -24 -33 -2 0 -2 4 1 9 8 12 -69 5 -96 -10 l-23 -13 25 -6 c14 -4 33
-3 42 2 33 16 41 8 15 -16 -14 -13 -23 -27 -20 -30 4 -3 -1 -6 -10 -6 -8 0
-24 -11 -35 -25 -12 -15 -30 -25 -47 -25 -17 0 -24 -4 -19 -12 4 -6 3 -8 -4
-4 -6 3 -22 2 -36 -4 -14 -5 -27 -6 -30 -2 -3 4 -21 9 -40 10 -33 2 -36 0 -36
-25 0 -22 -6 -16 -26 32 -14 33 -27 65 -30 71 -3 5 20 20 50 33 63 26 139 78
132 90 -7 11 10 29 64 73 25 20 53 50 63 66 17 30 17 31 -3 42 -24 13 -157 17
-183 5 -10 -4 -36 -3 -56 4 -50 14 -75 14 -139 -3 -29 -7 -52 -10 -52 -5 0 4
6 9 13 12 8 3 6 7 -5 12 -11 4 -34 -1 -60 -15 -25 -13 -37 -16 -30 -7 10 12
-1 14 -75 16 -48 0 -88 3 -91 5 -2 3 18 11 44 19 l49 15 -57 55 c-36 34 -75
61 -103 70 -49 17 -55 11 -30 -33 17 -30 20 -126 4 -136 -8 -5 -8 -9 1 -14 8
-5 -9 -17 -45 -34 -31 -15 -59 -25 -62 -22 -3 3 11 13 31 22 34 17 36 20 36
65 0 36 -5 53 -21 68 -12 11 -19 25 -17 33 3 7 1 25 -3 40 -4 16 -3 30 2 34 6
4 6 10 -1 19 -8 9 -6 14 6 19 25 10 110 7 140 -4 15 -6 28 -9 31 -7 2 2 -29
16 -68 30 -40 15 -74 25 -77 22 -3 -2 6 -9 19 -14 13 -5 18 -10 10 -10 -20 -1
-132 61 -138 76 -8 20 15 42 39 38 11 -3 27 -14 35 -25 8 -11 21 -20 29 -20 8
0 14 -4 14 -9 0 -5 14 -14 31 -20 40 -14 39 -14 39 4 0 8 6 12 13 9 8 -3 14 2
14 10 0 8 -13 18 -28 21 -15 3 -35 15 -45 26 -9 10 -25 19 -36 19 -10 0 -18 5
-18 11 0 7 -8 18 -17 25 -17 12 -17 14 -2 29 13 14 21 15 38 6 11 -7 21 -16
21 -21 0 -6 9 -10 20 -10 11 0 20 -5 20 -12 0 -6 3 -9 6 -6 3 3 0 15 -7 26
-16 25 -8 44 24 61 23 12 29 11 56 -9 18 -12 31 -27 30 -33 -1 -7 3 -24 9 -39
16 -39 44 -35 64 10 27 58 76 111 142 154 108 69 285 110 391 89 27 -5 51 -8
53 -7 1 2 -26 22 -60 44 -115 75 -259 124 -420 142 -93 11 -123 11 -219 0z
m365 -45 c50 -13 107 -30 126 -39 34 -15 33 -15 -73 -16 -132 0 -226 -20 -332
-69 -293 -137 -474 -462 -411 -742 41 -186 140 -310 327 -413 102 -56 204 -80
339 -80 103 0 125 4 210 33 187 64 312 168 411 342 l30 54 -6 -40 c-10 -66
-60 -201 -96 -262 -19 -31 -58 -81 -88 -112 -31 -32 -38 -38 -17 -13 50 59 99
137 136 216 38 84 38 105 0 44 -16 -26 -41 -55 -56 -64 -25 -17 -25 -18 -8
-31 14 -10 15 -16 6 -25 -7 -7 -12 -8 -12 -3 0 6 -10 -5 -21 -24 -18 -30 -22
-33 -31 -18 -12 23 -28 12 -20 -15 3 -14 1 -19 -6 -14 -8 5 -10 2 -6 -8 4 -11
0 -16 -11 -16 -9 0 -14 -4 -11 -9 3 -4 -6 -19 -20 -31 -24 -23 -49 -29 -127
-32 -37 -1 -65 -18 -30 -18 17 -1 17 -1 0 -11 -9 -5 -21 -8 -26 -4 -6 3 -31 0
-58 -6 -26 -6 -56 -12 -66 -14 -9 -2 -21 -6 -26 -10 -5 -3 -13 0 -17 6 -4 8
-9 7 -15 -2 -8 -12 -11 -12 -18 0 -8 12 -12 10 -22 -12 -7 -15 -18 -27 -24
-27 -14 0 -37 24 -30 32 2 2 -10 4 -28 3 -17 -1 -36 1 -42 4 -20 11 -34 9 -46
-5 -10 -12 -9 -18 3 -31 15 -14 13 -18 -18 -45 -20 -18 -45 -30 -64 -30 -37
-1 -84 31 -88 59 -2 15 -9 19 -23 16 -13 -4 -19 0 -19 10 0 10 -6 13 -20 10
-14 -4 -23 2 -31 20 -9 21 -41 41 -52 34 -1 -1 -15 8 -31 20 -34 27 -47 22
-40 -16 4 -16 1 -32 -5 -35 -7 -4 -9 -1 -5 8 7 19 -22 63 -47 71 -25 8 -25 25
0 25 13 0 20 9 23 30 3 16 2 30 -1 30 -3 0 -17 16 -29 34 -20 29 -29 34 -53
31 -15 -2 -33 -6 -39 -10 -6 -4 -24 -3 -41 0 -42 9 -69 56 -69 121 0 34 -5 56
-15 64 -8 7 -15 19 -15 27 0 8 -4 12 -9 8 -12 -7 -25 31 -16 46 5 7 15 3 31
-12 21 -19 24 -20 30 -6 3 9 1 31 -5 48 -13 39 -14 42 -1 34 6 -3 10 -2 10 4
0 5 3 18 7 28 6 15 4 16 -8 6 -12 -10 -17 -8 -27 7 -10 16 -8 20 8 25 19 6 24
15 18 32 -2 4 -14 7 -27 8 -13 0 -32 11 -41 23 -23 28 -12 77 24 108 14 12 22
25 18 28 -3 4 1 4 10 1 17 -7 48 19 48 41 0 8 4 14 9 14 5 0 14 14 20 30 8 25
7 30 -6 30 -9 0 -14 -3 -10 -6 8 -8 -16 -33 -26 -27 -4 2 -3 12 3 22 5 10 7
21 3 24 -3 4 1 9 10 13 9 3 13 12 10 20 -7 20 7 18 23 -3 12 -16 13 -15 13 12
0 17 -3 25 -5 19 -3 -6 -19 -8 -41 -5 -43 7 -56 33 -39 76 l13 30 1 -34 c0
-18 3 -36 6 -39 11 -11 56 -10 63 1 4 7 9 4 14 -9 8 -21 8 -22 12 79 2 49 6
54 25 35 9 -9 11 -6 7 11 -3 17 0 21 11 17 11 -4 13 0 8 18 -4 18 4 32 36 64
39 40 58 54 45 32 -3 -5 -1 -10 4 -10 6 0 11 7 11 16 0 9 5 12 12 8 7 -4 8 -3
4 4 -4 7 -21 12 -37 12 -17 0 -28 4 -25 9 3 5 -19 -4 -49 -21 -30 -16 -55 -33
-55 -36 0 -4 -14 -8 -31 -8 -17 -1 -35 -7 -39 -14 -4 -6 -11 -12 -16 -12 -5 0
-8 -5 -6 -12 2 -6 0 -8 -4 -3 -4 4 -33 -16 -63 -45 -53 -52 -54 -52 -22 -11
90 117 279 233 453 278 151 40 329 40 482 0z m-254 -225 c0 -4 -6 -13 -14 -19
-11 -9 -15 -8 -20 5 -3 9 -4 20 -1 24 6 10 35 2 35 -10z m-710 -104 c0 -2 -8
-10 -17 -17 -16 -13 -17 -12 -4 4 13 16 21 21 21 13z m54 -167 c-3 -5 -10 -7
-15 -3 -5 3 -7 10 -3 15 3 5 10 7 15 3 5 -3 7 -10 3 -15z m361 -30 c16 -16
-30 -10 -51 6 -18 14 -17 15 11 9 17 -4 34 -11 40 -15z m-60 -9 c3 -5 1 -10
-4 -10 -6 0 -11 5 -11 10 0 6 2 10 4 10 3 0 8 -4 11 -10z m-15 -40 c0 -5 -2
-10 -4 -10 -3 0 -8 5 -11 10 -3 6 -1 10 4 10 6 0 11 -4 11 -10z m-215 -9 c3
-5 1 -12 -5 -16 -5 -3 -10 1 -10 9 0 18 6 21 15 7z m285 -51 c0 -12 -28 -25
-36 -17 -9 9 6 27 22 27 8 0 14 -5 14 -10z m-100 -90 c0 -5 -4 -10 -10 -10 -5
0 -10 5 -10 10 0 6 5 10 10 10 6 0 10 -4 10 -10z m160 -14 c0 -8 -4 -17 -9
-21 -12 -7 -24 12 -16 25 9 15 25 12 25 -4z m1080 4 c0 -5 -10 -10 -22 -10
-13 0 -41 -3 -63 -6 -27 -5 -37 -3 -30 4 19 20 115 30 115 12z m-1583 -72
c-20 -15 -24 -15 -39 -2 -15 15 -15 17 0 33 16 16 19 16 39 2 l22 -16 -22 -17z
m407 27 c6 -17 -9 -21 -19 -5 -4 6 -11 8 -16 4 -6 -4 -6 -11 2 -20 7 -8 7 -14
1 -14 -15 0 -22 26 -9 39 15 15 34 14 41 -4z m-324 -25 c8 -5 11 -10 5 -10 -5
0 -17 5 -25 10 -8 5 -10 10 -5 10 6 0 17 -5 25 -10z m1186 -22 c9 -15 -50 -68
-76 -68 -10 0 -22 -5 -26 -11 -4 -8 -28 -10 -71 -6 -46 5 -62 3 -57 -5 5 -7 3
-8 -5 -4 -7 5 -27 2 -44 -5 l-32 -14 30 -5 c17 -3 33 -1 37 5 5 7 8 6 8 -2 0
-6 11 -10 25 -8 14 1 25 -1 25 -5 0 -4 8 -7 18 -7 33 0 42 -3 42 -13 0 -5 -8
-10 -17 -11 -16 0 -16 -1 1 -8 29 -11 -42 -29 -162 -41 -150 -14 -222 7 -222
64 0 20 2 19 20 -4 12 -15 18 -18 14 -7 -3 9 -3 24 0 34 6 14 8 14 21 -3 14
-18 14 -18 15 -1 0 13 5 17 19 12 11 -3 25 1 34 10 18 17 63 38 90 40 10 2 23
7 30 14 6 6 25 11 43 11 17 0 51 7 75 15 24 9 50 13 57 10 8 -3 20 -1 26 4 11
9 39 17 63 20 6 0 15 -4 19 -11z m-1216 -48 c0 -5 -4 -10 -10 -10 -5 0 -10 5
-10 10 0 6 5 10 10 10 6 0 10 -4 10 -10z m325 0 c3 -5 1 -10 -4 -10 -6 0 -11
5 -11 10 0 6 2 10 4 10 3 0 8 -4 11 -10z m-508 -42 c-3 -8 -6 -5 -6 6 -1 11 2
17 5 13 3 -3 4 -12 1 -19z m63 -194 c18 -41 23 -46 29 -30 7 19 8 19 13 -2 4
-12 2 -22 -3 -22 -15 0 56 -105 105 -155 24 -25 52 -45 64 -45 12 0 33 -11 48
-25 26 -24 51 -25 37 -2 -3 7 3 4 15 -7 23 -20 20 -45 -3 -26 -10 8 -15 8 -20
-1 -11 -16 49 -71 120 -110 148 -82 210 -104 221 -76 3 9 12 13 20 10 12 -4
12 -8 -3 -18 -15 -11 -8 -14 47 -23 l65 -11 -60 4 c-129 9 -309 85 -437 185
-155 121 -289 330 -312 485 -5 30 -1 25 13 -21 10 -33 28 -82 41 -110z m490
156 c0 -5 -2 -10 -4 -10 -3 0 -8 5 -11 10 -3 6 -1 10 4 10 6 0 11 -4 11 -10z
m310 -43 c0 -18 -2 -19 -10 -7 -13 20 -13 43 0 35 6 -3 10 -16 10 -28z m-280
-17 c0 -5 -2 -10 -4 -10 -3 0 -8 5 -11 10 -3 6 -1 10 4 10 6 0 11 -4 11 -10z
m-380 -10 c0 -5 -5 -10 -11 -10 -5 0 -7 5 -4 10 3 6 8 10 11 10 2 0 4 -4 4
-10z m20 -60 c0 -5 -2 -10 -4 -10 -3 0 -8 5 -11 10 -3 6 -1 10 4 10 6 0 11 -4
11 -10z m563 -91 c-8 -8 -13 -7 -18 2 -6 8 -4 10 5 4 10 -6 12 -4 6 11 -6 15
-5 17 5 7 9 -10 10 -16 2 -24z m220 7 c18 -8 48 -28 67 -45 28 -26 30 -29 8
-15 -16 9 -34 14 -42 11 -8 -3 -17 -3 -21 1 -4 4 -11 8 -16 8 -5 1 -13 2 -19
3 -5 0 -10 8 -10 16 0 9 -10 20 -22 25 l-23 9 23 0 c12 1 37 -5 55 -13z m259
-48 c-6 -24 -21 -33 -34 -20 -15 15 -2 41 20 39 13 -1 18 -7 14 -19z m-830
-55 c23 -20 23 -32 1 -28 -10 2 -21 4 -25 4 -10 1 -11 41 -1 41 3 0 15 -7 25
-17z m665 -9 c6 -16 -15 -37 -29 -28 -4 3 -8 14 -8 25 0 23 28 26 37 3z m-817
-32 c13 -11 12 -12 -5 -6 -21 8 -35 23 -35 38 0 6 6 3 13 -5 6 -8 19 -20 27
-27z m105 -52 c3 -5 1 -10 -4 -10 -6 0 -11 5 -11 10 0 6 2 10 4 10 3 0 8 -4
11 -10z m1105 -53 c0 -2 -12 -14 -27 -28 l-28 -24 24 28 c23 25 31 32 31 24z
m-510 -51 c0 -3 -4 -8 -10 -11 -5 -3 -10 -1 -10 4 0 6 5 11 10 11 6 0 10 -2
10 -4z m-405 -16 c3 -5 1 -10 -4 -10 -6 0 -11 5 -11 10 0 6 2 10 4 10 3 0 8
-4 11 -10z m80 -20 c3 -5 1 -10 -4 -10 -6 0 -11 5 -11 10 0 6 2 10 4 10 3 0 8
-4 11 -10z m320 -21 c10 -15 -1 -23 -20 -15 -9 3 -13 10 -10 16 8 13 22 13 30
-1z m-321 -40 c-6 -11 -24 -2 -24 11 0 5 7 7 15 4 8 -4 12 -10 9 -15z m129
-66 c-7 -2 -19 -2 -25 0 -7 3 -2 5 12 5 14 0 19 -2 13 -5z m112 -23 c17 -7 14
-9 -13 -9 -20 -1 -31 3 -27 9 7 12 13 12 40 0z"/>
<path d="M920 2001 c0 -6 5 -13 10 -16 6 -3 10 -16 11 -28 l0 -22 11 22 c8 17
8 26 -2 38 -14 17 -30 20 -30 6z"/>
<path d="M636 1518 c-21 -29 -20 -40 3 -66 23 -27 47 -28 61 -3 14 28 12 57
-6 75 -21 22 -40 20 -58 -6z"/>
<path d="M690 1170 c0 -5 5 -10 10 -10 6 0 10 5 10 10 0 6 -4 10 -10 10 -5 0
-10 -4 -10 -10z"/>
<path d="M707 1132 c-28 -31 -16 -105 13 -87 8 5 11 4 6 -3 -3 -6 -2 -13 4
-17 5 -3 10 -2 10 3 0 5 9 12 20 15 11 3 17 1 14 -4 -3 -5 2 -12 11 -15 13 -6
14 -8 3 -15 -10 -7 -9 -9 4 -9 24 0 41 37 34 73 -13 66 -82 100 -119 59z"/>
<path d="M1915 900 c-3 -5 -1 -10 4 -10 6 0 11 5 11 10 0 6 -2 10 -4 10 -3 0
-8 -4 -11 -10z"/>
<path d="M1856 861 c-10 -11 -15 -24 -12 -29 9 -14 45 -2 56 18 18 33 -16 42
-44 11z"/>
<path d="M975 860 c-3 -5 1 -10 10 -10 9 0 13 5 10 10 -3 6 -8 10 -10 10 -2 0
-7 -4 -10 -10z"/>
<path d="M1202 758 c-63 -31 -16 -116 57 -104 33 5 61 27 61 49 0 16 -58 67
-77 66 -10 0 -28 -5 -41 -11z"/>
<path d="M1490 910 c0 -5 5 -10 11 -10 5 0 7 5 4 10 -3 6 -8 10 -11 10 -2 0
-4 -4 -4 -10z"/>
<path d="M1417 1559 c7 -7 15 -10 18 -7 3 3 -2 9 -12 12 -14 6 -15 5 -6 -5z"/>
<path d="M1507 1519 c7 -7 15 -10 18 -7 3 3 -2 9 -12 12 -14 6 -15 5 -6 -5z"/>
<path d="M1718 1453 c6 -2 18 -2 25 0 6 3 1 5 -13 5 -14 0 -19 -2 -12 -5z"/>
</g>
</svg>
